<?xml version="1.0" encoding="UTF-8" standalone="no"?>
<!DOCTYPE svg PUBLIC "-//W3C//DTD SVG 1.1//EN"
 "http://www.w3.org/Graphics/SVG/1.1/DTD/svg11.dtd">
<!-- Generated by graphviz version 11.0.0 (20240428.1522)
 -->
<!-- Pages: 1 -->
<svg width="1271pt" height="332pt"
 viewBox="0.00 0.00 1271.44 332.00" xmlns="http://www.w3.org/2000/svg" xmlns:xlink="http://www.w3.org/1999/xlink">
<g id="graph0" class="graph" transform="scale(1 1) rotate(0) translate(4 328)">
<polygon fill="white" stroke="none" points="-4,4 -4,-328 1267.44,-328 1267.44,4 -4,4"/>
<!-- [root] local_file.my_file (expand) -->
<g id="node1" class="node">
<title>[root] local_file.my_file (expand)</title>
<polygon fill="none" stroke="black" points="970.45,-180 856.95,-180 856.95,-144 970.45,-144 970.45,-180"/>
<text text-anchor="middle" x="913.7" y="-156.95" font-family="Times,serif" font-size="14.00">local_file.my_file</text>
</g>
<!-- [root] provider[&quot;registry.terraform.io/hashicorp/local&quot;] -->
<g id="node2" class="node">
<title>[root] provider[&quot;registry.terraform.io/hashicorp/local&quot;]</title>
<polygon fill="none" stroke="black" points="913.7,-108 644.2,-90 913.7,-72 1183.19,-90 913.7,-108"/>
<text text-anchor="middle" x="913.7" y="-84.95" font-family="Times,serif" font-size="14.00">provider[&quot;registry.terraform.io/hashicorp/local&quot;]</text>
</g>
<!-- [root] local_file.my_file (expand)&#45;&gt;[root] provider[&quot;registry.terraform.io/hashicorp/local&quot;] -->
<g id="edge1" class="edge">
<title>[root] local_file.my_file (expand)&#45;&gt;[root] provider[&quot;registry.terraform.io/hashicorp/local&quot;]</title>
<path fill="none" stroke="black" d="M913.7,-143.7C913.7,-136.41 913.7,-127.73 913.7,-119.54"/>
<polygon fill="black" stroke="black" points="917.2,-119.62 913.7,-109.62 910.2,-119.62 917.2,-119.62"/>
</g>
<!-- [root] random_id.my_id (expand) -->
<g id="node4" class="node">
<title>[root] random_id.my_id (expand)</title>
<polygon fill="none" stroke="black" points="517.82,-108 403.57,-108 403.57,-72 517.82,-72 517.82,-108"/>
<text text-anchor="middle" x="460.7" y="-84.95" font-family="Times,serif" font-size="14.00">random_id.my_id</text>
</g>
<!-- [root] local_file.my_file (expand)&#45;&gt;[root] random_id.my_id (expand) -->
<g id="edge2" class="edge">
<title>[root] local_file.my_file (expand)&#45;&gt;[root] random_id.my_id (expand)</title>
<path fill="none" stroke="black" d="M856.78,-152.21C773.58,-139.35 618.93,-115.45 529.47,-101.63"/>
<polygon fill="black" stroke="black" points="530,-98.17 519.59,-100.1 528.94,-105.09 530,-98.17"/>
</g>
<!-- [root] provider[&quot;registry.terraform.io/hashicorp/random&quot;] -->
<g id="node3" class="node">
<title>[root] provider[&quot;registry.terraform.io/hashicorp/random&quot;]</title>
<polygon fill="none" stroke="black" points="284.7,-36 0,-18 284.7,0 569.39,-18 284.7,-36"/>
<text text-anchor="middle" x="284.7" y="-12.95" font-family="Times,serif" font-size="14.00">provider[&quot;registry.terraform.io/hashicorp/random&quot;]</text>
</g>
<!-- [root] random_id.my_id (expand)&#45;&gt;[root] provider[&quot;registry.terraform.io/hashicorp/random&quot;] -->
<g id="edge7" class="edge">
<title>[root] random_id.my_id (expand)&#45;&gt;[root] provider[&quot;registry.terraform.io/hashicorp/random&quot;]</title>
<path fill="none" stroke="black" d="M416.74,-71.52C391.23,-61.37 359.08,-48.58 332.89,-38.17"/>
<polygon fill="black" stroke="black" points="334.43,-35.01 323.84,-34.57 331.84,-41.52 334.43,-35.01"/>
</g>
<!-- [root] var.byte_length -->
<g id="node5" class="node">
<title>[root] var.byte_length</title>
<polygon fill="none" stroke="black" points="681.7,-36 587.7,-36 587.7,0 687.7,0 687.7,-30 681.7,-36"/>
<polyline fill="none" stroke="black" points="681.7,-36 681.7,-30"/>
<polyline fill="none" stroke="black" points="687.7,-30 681.7,-30"/>
<text text-anchor="middle" x="637.7" y="-12.95" font-family="Times,serif" font-size="14.00">var.byte_length</text>
</g>
<!-- [root] random_id.my_id (expand)&#45;&gt;[root] var.byte_length -->
<g id="edge8" class="edge">
<title>[root] random_id.my_id (expand)&#45;&gt;[root] var.byte_length</title>
<path fill="none" stroke="black" d="M504.91,-71.52C528.65,-62.13 558.12,-50.47 583.26,-40.53"/>
<polygon fill="black" stroke="black" points="584.33,-43.87 592.34,-36.94 581.75,-37.36 584.33,-43.87"/>
</g>
<!-- [root] output.id (expand) -->
<g id="node6" class="node">
<title>[root] output.id (expand)</title>
<ellipse fill="none" stroke="black" cx="395.7" cy="-162" rx="103.04" ry="18"/>
<text text-anchor="middle" x="395.7" y="-156.95" font-family="Times,serif" font-size="14.00">[root] output.id (expand)</text>
</g>
<!-- [root] output.id (expand)&#45;&gt;[root] random_id.my_id (expand) -->
<g id="edge3" class="edge">
<title>[root] output.id (expand)&#45;&gt;[root] random_id.my_id (expand)</title>
<path fill="none" stroke="black" d="M411.43,-144.05C419.06,-135.84 428.39,-125.79 436.87,-116.66"/>
<polygon fill="black" stroke="black" points="439.39,-119.09 443.63,-109.38 434.26,-114.33 439.39,-119.09"/>
</g>
<!-- [root] output.id_length (expand) -->
<g id="node7" class="node">
<title>[root] output.id_length (expand)</title>
<ellipse fill="none" stroke="black" cx="143.7" cy="-162" rx="130.68" ry="18"/>
<text text-anchor="middle" x="143.7" y="-156.95" font-family="Times,serif" font-size="14.00">[root] output.id_length (expand)</text>
</g>
<!-- [root] output.id_length (expand)&#45;&gt;[root] random_id.my_id (expand) -->
<g id="edge4" class="edge">
<title>[root] output.id_length (expand)&#45;&gt;[root] random_id.my_id (expand)</title>
<path fill="none" stroke="black" d="M210.92,-146.15C264.2,-134.39 338.35,-118.02 392.01,-106.17"/>
<polygon fill="black" stroke="black" points="392.64,-109.61 401.65,-104.04 391.13,-102.78 392.64,-109.61"/>
</g>
<!-- [root] provider[&quot;registry.terraform.io/hashicorp/local&quot;] (close) -->
<g id="node8" class="node">
<title>[root] provider[&quot;registry.terraform.io/hashicorp/local&quot;] (close)</title>
<ellipse fill="none" stroke="black" cx="1021.7" cy="-234" rx="241.74" ry="18"/>
<text text-anchor="middle" x="1021.7" y="-228.95" font-family="Times,serif" font-size="14.00">[root] provider[&quot;registry.terraform.io/hashicorp/local&quot;] (close)</text>
</g>
<!-- [root] provider[&quot;registry.terraform.io/hashicorp/local&quot;] (close)&#45;&gt;[root] local_file.my_file (expand) -->
<g id="edge5" class="edge">
<title>[root] provider[&quot;registry.terraform.io/hashicorp/local&quot;] (close)&#45;&gt;[root] local_file.my_file (expand)</title>
<path fill="none" stroke="black" d="M995,-215.7C981.37,-206.86 964.59,-195.99 949.82,-186.41"/>
<polygon fill="black" stroke="black" points="952.03,-183.67 941.73,-181.17 948.22,-189.55 952.03,-183.67"/>
</g>
<!-- [root] provider[&quot;registry.terraform.io/hashicorp/random&quot;] (close) -->
<g id="node9" class="node">
<title>[root] provider[&quot;registry.terraform.io/hashicorp/random&quot;] (close)</title>
<ellipse fill="none" stroke="black" cx="509.7" cy="-234" rx="252.49" ry="18"/>
<text text-anchor="middle" x="509.7" y="-228.95" font-family="Times,serif" font-size="14.00">[root] provider[&quot;registry.terraform.io/hashicorp/random&quot;] (close)</text>
</g>
<!-- [root] provider[&quot;registry.terraform.io/hashicorp/random&quot;] (close)&#45;&gt;[root] random_id.my_id (expand) -->
<g id="edge6" class="edge">
<title>[root] provider[&quot;registry.terraform.io/hashicorp/random&quot;] (close)&#45;&gt;[root] random_id.my_id (expand)</title>
<path fill="none" stroke="black" d="M512.74,-215.58C515.19,-197.12 516.9,-167.45 507.7,-144 503.74,-133.91 496.93,-124.49 489.72,-116.47"/>
<polygon fill="black" stroke="black" points="492.36,-114.17 482.89,-109.44 487.34,-119.05 492.36,-114.17"/>
</g>
<!-- [root] root -->
<g id="node10" class="node">
<title>[root] root</title>
<ellipse fill="none" stroke="black" cx="369.7" cy="-306" rx="49.3" ry="18"/>
<text text-anchor="middle" x="369.7" y="-300.95" font-family="Times,serif" font-size="14.00">[root] root</text>
</g>
<!-- [root] root&#45;&gt;[root] output.id (expand) -->
<g id="edge9" class="edge">
<title>[root] root&#45;&gt;[root] output.id (expand)</title>
<path fill="none" stroke="black" d="M325.21,-297.96C298.12,-291.14 265.57,-277.82 248.7,-252 239.94,-238.61 239.5,-229.09 248.7,-216 261.96,-197.11 282.65,-184.93 304.36,-177.07"/>
<polygon fill="black" stroke="black" points="305.22,-180.47 313.63,-174.03 303.03,-173.82 305.22,-180.47"/>
</g>
<!-- [root] root&#45;&gt;[root] output.id_length (expand) -->
<g id="edge10" class="edge">
<title>[root] root&#45;&gt;[root] output.id_length (expand)</title>
<path fill="none" stroke="black" d="M332.08,-293.9C304.89,-284.91 267.95,-270.69 238.7,-252 210.95,-234.27 184.02,-207.9 165.96,-188.46"/>
<polygon fill="black" stroke="black" points="168.66,-186.22 159.33,-181.19 163.48,-190.94 168.66,-186.22"/>
</g>
<!-- [root] root&#45;&gt;[root] provider[&quot;registry.terraform.io/hashicorp/local&quot;] (close) -->
<g id="edge11" class="edge">
<title>[root] root&#45;&gt;[root] provider[&quot;registry.terraform.io/hashicorp/local&quot;] (close)</title>
<path fill="none" stroke="black" d="M416.59,-299.97C511.49,-289.78 729.76,-266.34 876.52,-250.59"/>
<polygon fill="black" stroke="black" points="876.77,-254.08 886.34,-249.53 876.02,-247.12 876.77,-254.08"/>
</g>
<!-- [root] root&#45;&gt;[root] provider[&quot;registry.terraform.io/hashicorp/random&quot;] (close) -->
<g id="edge12" class="edge">
<title>[root] root&#45;&gt;[root] provider[&quot;registry.terraform.io/hashicorp/random&quot;] (close)</title>
<path fill="none" stroke="black" d="M398.03,-290.83C417.27,-281.21 443.12,-268.29 465.11,-257.3"/>
<polygon fill="black" stroke="black" points="466.48,-260.52 473.86,-252.92 463.35,-254.26 466.48,-260.52"/>
</g>
</g>
</svg>
